<?xml version="1.0" encoding="UTF-8" standalone="no"?>
<!-- Created with Inkscape (http://www.inkscape.org/) -->

<svg
   width="210mm"
   height="297mm"
   viewBox="0 0 210 297"
   version="1.1"
   id="svg1"
   xml:space="preserve"
   inkscape:version="1.3.2 (091e20e, 2023-11-25, custom)"
   sodipodi:docname="gatito.svg"
   xmlns:inkscape="http://www.inkscape.org/namespaces/inkscape"
   xmlns:sodipodi="http://sodipodi.sourceforge.net/DTD/sodipodi-0.dtd"
   xmlns="http://www.w3.org/2000/svg"
   xmlns:svg="http://www.w3.org/2000/svg"><sodipodi:namedview
     id="namedview1"
     pagecolor="#ffffff"
     bordercolor="#000000"
     borderopacity="0.25"
     inkscape:showpageshadow="2"
     inkscape:pageopacity="0.0"
     inkscape:pagecheckerboard="0"
     inkscape:deskcolor="#d1d1d1"
     inkscape:document-units="mm"
     inkscape:zoom="1.4627806"
     inkscape:cx="504.86041"
     inkscape:cy="447.43553"
     inkscape:window-width="1920"
     inkscape:window-height="1017"
     inkscape:window-x="-8"
     inkscape:window-y="-8"
     inkscape:window-maximized="1"
     inkscape:current-layer="layer6" /><defs
     id="defs1" /><g
     inkscape:label="fondoCara"
     inkscape:groupmode="layer"
     id="layer1"
     style="display:inline"><path
       style="display:inline;opacity:1;fill:#000000;stroke-width:0.264583"
       d="m 78.913891,87.738946 c -2.685216,0.137052 0,23.789274 0,23.789274 0,0 -4.394286,11.75914 -3.197484,14.96423 5.135666,13.75353 30.951643,14.32472 30.951643,14.32472 0,0 22.85846,1.79087 31.07953,-14.83632 1.28315,-2.59517 -3.58118,-15.47582 -3.58118,-15.47582 0,0 3.23879,-21.14202 0.2558,-22.766084 -2.98299,-1.624064 -19.057,9.208752 -19.057,9.208752 l -17.138509,0.255799 c 0,0 -12.400468,-9.817354 -19.3128,-9.464551 z"
       id="path2"
       sodipodi:nodetypes="scscsczccs" /></g><g
     inkscape:groupmode="layer"
     id="layer6"
     inkscape:label="elementosCara"
     style="display:inline"
     transform="matrix(0.97744361,0,0,0.96428572,1.9742657,4.407959)"><ellipse
       style="display:inline;fill:#ffffff;stroke-width:0.272498"
       id="path3-6"
       cx="123.65991"
       cy="121.56355"
       rx="8.5053062"
       ry="8.9529543"
       inkscape:label="OjoDer" /><ellipse
       style="display:inline;opacity:1;fill:#ffffff;stroke-width:0.272498"
       id="path3"
       cx="90.360886"
       cy="121.63227"
       rx="8.5053062"
       ry="8.9529543"
       inkscape:label="ojoIz" /><path
       style="display:inline;fill:#ffff00;stroke-width:0.27253"
       d="m 93.828429,115.69679 c 0,0 -0.829089,0.68365 -0.916347,1.60985 -0.128274,1.36155 0.554963,4.39281 4.449322,2.07081 0,0.19896 2.13992,6.93 -4.776056,7.95818 -7.360361,1.09425 -8.930572,-8.91979 -3.794675,-11.10829 0,0 2.420737,-1.02794 5.037756,-0.53055 z"
       id="path8"
       sodipodi:nodetypes="cscscc"
       inkscape:label="irisIz" /><path
       style="display:inline;fill:#ffff00;fill-opacity:1;stroke-width:0.273646"
       d="m 120.16075,115.50879 c 0,0 0.83589,0.68365 0.92386,1.60985 0.12933,1.36155 -0.55951,4.39281 -4.48584,2.07081 0,0.19896 -2.15748,6.93 4.81526,7.95818 7.42077,1.09425 9.00387,-8.91979 3.82582,-11.10829 0,0 -2.4406,-1.02794 -5.0791,-0.53055 z"
       id="path8-7"
       sodipodi:nodetypes="cscscc"
       inkscape:label="irisDer" /><path
       style="display:inline;fill:#4d4d4d;stroke-width:0.27253"
       d="m 83.164085,103.79268 c 0,0 -0.654255,-6.631818 0.654253,-8.753998 1.308508,-2.122183 7.589351,2.387453 7.589351,2.387453 0,0 -6.411691,3.846455 -8.243604,6.366545 z"
       id="path4"
       inkscape:label="orejaIz" /><path
       style="display:inline;fill:#4d4d4d;stroke-width:0.27253"
       d="m 122.41934,97.426135 c 0,0 6.28085,-3.050636 7.7202,-2.917999 1.43936,0.132636 1.83191,8.223454 1.30851,9.815094 -0.5234,1.59163 0.5234,-3.58119 -9.02871,-6.897095 z"
       id="path5"
       inkscape:label="orejaDer" /><path
       style="display:inline;fill:#4d4d4d;stroke-width:0.27253"
       d="m 104.65634,125.11397 2.25718,2.68589 2.64973,-2.78536 z"
       id="path6"
       inkscape:label="nariz" /><path
       style="fill:#666666;stroke-width:0.27253"
       d="m 106.48825,127.20299 c 0,0 0.36499,2.23938 -0.86165,3.68949 -1.10823,1.31012 -3.081,2.62487 -4.75804,1.62072 -0.60002,-0.35927 -0.905459,-1.10213 -1.478968,-2.12693 -0.521988,-0.93273 -1.867358,1.10411 0.588829,2.98432 1.565789,1.19861 3.445899,0.80254 5.055869,-0.0718 1.18375,-0.64289 2.01008,-2.54774 2.01008,-2.54774 0,0 1.40664,4.17804 6.41169,3.05064 0,0 2.97686,-0.8953 1.86462,-3.78014 -0.0152,-0.006 -1.1608,-0.12996 -0.85053,0.89529 0.057,0.18821 -0.0321,1.59553 -2.81828,1.69177 -2.14213,0.074 -3.08203,-0.81679 -4.11681,-5.50506"
       id="path7"
       sodipodi:nodetypes="cssssscccssc"
       inkscape:label="bigote" /></g></svg>
